<svg width="95" height="32" viewBox="0 0 95 32" fill="none" xmlns="http://www.w3.org/2000/svg">
<g clip-path="url(#clip0_1348_8340)">
<path fill-rule="evenodd" clip-rule="evenodd" d="M22.5738 0.710327C24.4271 0.710327 26.1927 1.07979 27.7978 1.74337C22.3768 1.18431 17.0264 3.82893 11.7782 9.6991C18.2765 4.80607 24.6946 2.78858 31.0348 3.64419C31.7644 4.22513 32.4308 4.87656 33.0193 5.59119C27.2773 4.58974 21.5841 7.1857 16.0026 13.4254C22.1482 8.81916 28.2088 6.76522 34.1866 7.25622C34.5807 7.92467 34.9138 8.62954 35.1813 9.36362C30.1909 8.93587 25.052 11.2766 19.7941 16.4151C25.3001 12.8371 30.5848 11.087 35.692 11.1989C35.8477 11.984 35.928 12.7909 35.928 13.6174C35.928 20.7272 29.9282 26.5268 22.5738 26.5268C15.2195 26.5268 9.21973 20.7272 9.21973 13.6174C9.21973 6.50753 15.2171 0.710327 22.5738 0.710327Z" fill="#0078C8"/>
<path fill-rule="evenodd" clip-rule="evenodd" d="M21.939 20.5256H22.0947H93.644V19.7307L22.2722 19.7696L14.7135 19.5119C11.6273 19.2737 9.25853 18.9359 7.64614 18.5761C4.91985 17.8785 3.3658 17.0448 2.96939 16.0288C2.59 15.1343 3.12747 14.2592 4.62072 13.4619L7.76529 12.1493L9.23909 11.6511C9.59656 11.4712 9.4969 11.4517 8.93992 11.5514L6.85085 12.0083C5.97533 12.2466 5.2579 12.4653 4.62072 12.7036C3.92516 12.9418 3.18827 13.2408 2.47083 13.6394C1.27672 14.2957 0.60062 14.9933 0.440107 15.6885C0.201771 16.6826 1.03838 17.6379 2.88913 18.5324C4.18296 19.1693 5.8756 19.6068 7.90632 19.9057L13.4197 20.404C15.3872 20.5037 18.2253 20.5231 21.939 20.5256Z" fill="#6C6C6C"/>
<path d="M93.62 2.98797L90.8889 5.11726C89.933 3.9408 88.9578 3.35257 87.9653 3.35257C87.4789 3.35257 87.085 3.46681 86.7789 3.6953C86.47 3.92622 86.3164 4.18388 86.3164 4.4707C86.3164 4.75752 86.4234 5.03219 86.6451 5.28498C86.9465 5.62772 87.8489 6.35937 89.3517 7.48234C90.7574 8.52269 91.6109 9.17898 91.9129 9.44877C92.6594 10.1172 93.1871 10.7516 93.503 11.3593C93.812 11.9719 93.9702 12.6354 93.9702 13.3549C93.9702 14.7623 93.4227 15.9193 92.3213 16.8357C91.2246 17.7496 89.7922 18.2066 88.024 18.2066C86.6451 18.2066 85.446 17.9076 84.422 17.3122C83.398 16.7117 82.5177 15.7735 81.7904 14.4949L84.8938 12.842C85.8277 14.3515 86.9005 15.1075 88.1136 15.1075C88.7461 15.1075 89.2813 14.9446 89.7119 14.6189C90.1418 14.2932 90.3583 13.9164 90.3583 13.4911C90.3583 13.1046 90.1983 12.7157 89.8696 12.3267C89.5461 11.9403 88.8287 11.3447 87.7197 10.545C85.6089 9.02584 84.2492 7.85423 83.6342 7.02782C83.0186 6.20135 82.7097 5.37735 82.7097 4.55577C82.7097 3.36716 83.2229 2.34869 84.2422 1.50281C85.2662 0.652059 86.5282 0.226685 88.0287 0.226685C88.9945 0.226685 89.9161 0.426003 90.7865 0.81978C91.6575 1.21841 92.6006 1.9379 93.62 2.98797ZM72.4447 10.2922V14.6797H73.3785C74.9273 14.6797 75.9734 14.5095 76.5133 14.1668C77.0533 13.824 77.3209 13.3282 77.3209 12.6768C77.3209 11.9427 77.0067 11.3569 76.372 10.9315C75.7401 10.5062 74.6893 10.2922 73.2202 10.2922H72.4447ZM72.4447 3.7585V7.38267H73.2662C74.1832 7.38267 74.8645 7.21499 75.3096 6.87707C75.7546 6.5441 75.9734 6.08714 75.9734 5.51104C75.9734 4.97385 75.7616 4.54848 75.341 4.23249C74.918 3.91892 74.2757 3.7585 73.4146 3.7585H72.4447ZM68.7792 17.7813V0.659349H71.8338C73.6072 0.659349 74.9005 0.759009 75.7226 0.960754C76.8851 1.23542 77.812 1.73859 78.4979 2.47509C79.1862 3.21403 79.5312 4.08422 79.5312 5.08566C79.5312 5.7371 79.373 6.33016 79.0646 6.86253C78.7557 7.39483 78.2472 7.89554 77.5466 8.35983C78.719 8.84839 79.5778 9.4561 80.12 10.1926C80.6623 10.9242 80.9322 11.7895 80.9322 12.791C80.9322 13.7536 80.6501 14.6262 80.088 15.4186C79.5213 16.2086 78.7946 16.8017 77.9068 17.1906C77.0166 17.5844 75.7907 17.7788 74.2245 17.7788H68.7792V17.7813ZM58.1613 5.20963L55.5396 11.1041H60.7711L58.1613 5.20963ZM56.3009 0.659349H60.0095L67.4562 17.7813H63.6261L62.118 14.2519H54.1875L52.6431 17.7813H48.8127L56.3009 0.659349ZM43.9487 7.3608H45.1306C46.0597 7.3608 46.7017 7.30005 47.0665 7.18578C47.4313 7.06669 47.7135 6.87469 47.9251 6.60484C48.1318 6.33505 48.2339 6.00935 48.2339 5.62285C48.2339 4.95926 47.942 4.47313 47.3584 4.17172C46.9352 3.94566 46.1448 3.829 44.9969 3.829H43.9511V7.3608H43.9487ZM40.2861 0.659349H44.1968C46.3126 0.659349 47.8351 0.829502 48.7689 1.17709C49.7028 1.52226 50.4446 2.08374 50.982 2.85428C51.522 3.62481 51.7895 4.55091 51.7895 5.63257C51.7895 6.82849 51.4344 7.82264 50.7242 8.61264C50.019 9.40263 49.0583 9.95681 47.8423 10.2655C47.1273 10.4454 45.8311 10.5329 43.9487 10.5329V17.7813H40.2837V0.659349H40.2861Z" fill="#6C6C6C"/>
<path d="M83.9771 29.456L83.5344 29.9008C83.354 29.7209 83.1911 29.631 83.0457 29.631C82.9654 29.631 82.902 29.648 82.8583 29.682C82.8118 29.716 82.7902 29.7573 82.7902 29.8084C82.7902 29.8473 82.8048 29.8813 82.8339 29.9154C82.863 29.947 82.9334 29.9907 83.048 30.0491L83.3104 30.1803C83.5879 30.3164 83.7776 30.455 83.8794 30.596C83.9818 30.7369 84.033 30.9022 84.033 31.0918C84.033 31.3446 83.9405 31.5561 83.7532 31.7238C83.5658 31.8939 83.3156 31.9766 83.0044 31.9766C82.5884 31.9766 82.255 31.8137 82.0071 31.488L82.4499 31.0067C82.5348 31.104 82.632 31.1842 82.746 31.2449C82.8583 31.3057 82.9601 31.3349 83.048 31.3349C83.1428 31.3349 83.2179 31.313 83.2766 31.2668C83.3348 31.2207 83.3639 31.1696 83.3639 31.1113C83.3639 31.0019 83.2592 30.8949 83.0503 30.7904L82.8094 30.6689C82.3475 30.4379 82.1165 30.1463 82.1165 29.7987C82.1165 29.5726 82.2038 29.3806 82.3766 29.2226C82.5494 29.0622 82.7728 28.9844 83.0428 28.9844C83.2278 28.9844 83.4029 29.0257 83.5658 29.1084C83.7264 29.1862 83.8649 29.3028 83.9771 29.456ZM80.9342 30.122C80.886 29.9664 80.7934 29.84 80.655 29.7403C80.5136 29.6431 80.353 29.5945 80.1686 29.5945C79.969 29.5945 79.7939 29.648 79.6432 29.7598C79.5483 29.8279 79.4605 29.9494 79.3802 30.122H80.9342ZM81.647 30.681H79.3488C79.3831 30.8852 79.4704 31.0457 79.6141 31.1672C79.7572 31.2863 79.9422 31.347 80.1633 31.347C80.431 31.347 80.6596 31.2523 80.8516 31.0651L81.4526 31.3495C81.3043 31.5634 81.1216 31.7214 80.915 31.8234C80.7056 31.9255 80.4577 31.9766 80.1686 31.9766C79.7235 31.9766 79.3587 31.8356 79.0788 31.5536C78.799 31.2717 78.6582 30.9192 78.6582 30.4963C78.6582 30.0612 78.799 29.7014 79.0788 29.4146C79.3587 29.1278 79.7113 28.9844 80.1342 28.9844C80.584 28.9844 80.9488 29.1278 81.231 29.4146C81.5131 29.7014 81.6545 30.0782 81.6545 30.5498L81.647 30.681ZM78.1427 29.6334L77.5469 29.9616C77.4346 29.8448 77.3252 29.7647 77.2158 29.7185C77.1065 29.6723 76.9779 29.6504 76.8318 29.6504C76.5642 29.6504 76.3478 29.7306 76.1825 29.8886C76.0167 30.0491 75.9341 30.2508 75.9341 30.5011C75.9341 30.7442 76.0144 30.9411 76.1726 31.0942C76.3332 31.2474 76.5398 31.3227 76.7998 31.3227C77.121 31.3227 77.3689 31.2133 77.5492 30.9946L78.1136 31.3811C77.807 31.7797 77.3741 31.9766 76.8173 31.9766C76.3134 31.9766 75.9196 31.8283 75.6374 31.5318C75.3529 31.2352 75.2121 30.8876 75.2121 30.4914C75.2121 30.2144 75.2801 29.9616 75.4186 29.7306C75.5571 29.4997 75.7497 29.315 75.9975 29.1837C76.2454 29.0525 76.5229 28.9844 76.8295 28.9844C77.114 28.9844 77.3665 29.0403 77.5929 29.1546C77.814 29.264 77.999 29.4244 78.1427 29.6334ZM73.9815 29.0525H74.6966V31.9061H73.9815V29.0525ZM74.3411 27.8809C74.4679 27.8809 74.575 27.9271 74.6646 28.0169C74.7548 28.1069 74.8007 28.2163 74.8007 28.3451C74.8007 28.4715 74.7571 28.5809 74.6675 28.6708C74.5773 28.7607 74.4726 28.8046 74.3463 28.8046C74.2195 28.8046 74.1101 28.7584 74.0205 28.6684C73.9303 28.576 73.8844 28.4666 73.8844 28.3354C73.8844 28.209 73.928 28.1045 74.0176 28.0146C74.1054 27.9246 74.2148 27.8809 74.3411 27.8809ZM70.742 29.0525H71.4739L72.1936 30.7369L72.9185 29.0525H73.6458L72.4176 31.9061H71.9603L70.742 29.0525ZM69.1588 29.0525H69.7767V29.4146C69.8419 29.2737 69.9297 29.1667 70.0391 29.0913C70.1485 29.0184 70.2701 28.9819 70.3993 28.9819C70.4912 28.9819 70.5889 29.0063 70.6884 29.0549L70.4673 29.6723C70.3847 29.631 70.3137 29.6091 70.2602 29.6091C70.1508 29.6091 70.0583 29.6772 69.9833 29.8133C69.9076 29.9494 69.8686 30.2167 69.8686 30.613L69.8716 30.7515V31.9037H69.1565V29.0525H69.1588ZM68.0278 30.122C67.9818 29.9664 67.887 29.84 67.7479 29.7403C67.6071 29.6431 67.4465 29.5945 67.2615 29.5945C67.0625 29.5945 66.8874 29.648 66.7367 29.7598C66.6419 29.8279 66.554 29.9494 66.4737 30.122H68.0278ZM68.7405 30.681H66.4423C66.4761 30.8852 66.5639 31.0457 66.707 31.1672C66.8508 31.2863 67.0358 31.347 67.2569 31.347C67.5245 31.347 67.7532 31.2523 67.9452 31.0651L68.5456 31.3495C68.3972 31.5634 68.2151 31.7214 68.0086 31.8234C67.7991 31.9255 67.5513 31.9766 67.2615 31.9766C66.8141 31.9766 66.4516 31.8356 66.1724 31.5536C65.8925 31.2717 65.7517 30.9192 65.7517 30.4963C65.7517 30.0612 65.8925 29.7014 66.1724 29.4146C66.4516 29.1278 66.8048 28.9844 67.2278 28.9844C67.6775 28.9844 68.0423 29.1278 68.3245 29.4146C68.6067 29.7014 68.7475 30.0782 68.7475 30.5498L68.7405 30.681ZM65.1943 28.5712L64.6497 29.0525C64.4577 28.7875 64.2657 28.6538 64.0662 28.6538C63.969 28.6538 63.891 28.6806 63.83 28.7316C63.7694 28.7826 63.738 28.841 63.738 28.9066C63.738 28.9722 63.7596 29.033 63.8032 29.0913C63.8643 29.1691 64.0441 29.3344 64.3431 29.5872C64.623 29.823 64.7934 29.9688 64.854 30.0296C65.0023 30.1803 65.1094 30.3237 65.1705 30.4598C65.231 30.5984 65.2624 30.7467 65.2624 30.9095C65.2624 31.2255 65.153 31.488 64.9342 31.6946C64.7155 31.9012 64.4286 32.0033 64.0761 32.0033C63.8009 32.0033 63.5629 31.9353 63.3587 31.8016C63.1539 31.6655 62.9788 31.454 62.8333 31.1672L63.4535 30.7953C63.6403 31.1355 63.8544 31.3057 64.0953 31.3057C64.2215 31.3057 64.3286 31.2692 64.4141 31.1963C64.499 31.1234 64.5427 31.0383 64.5427 30.9411C64.5427 30.8536 64.5113 30.7661 64.4455 30.6786C64.3821 30.5911 64.239 30.4574 64.015 30.2775C63.5943 29.9348 63.322 29.6723 63.2004 29.4851C63.0765 29.2979 63.0154 29.1132 63.0154 28.9285C63.0154 28.6611 63.1178 28.4302 63.322 28.2406C63.5262 28.0486 63.7793 27.9538 64.0784 27.9538C64.2704 27.9538 64.4554 27.9975 64.6276 28.0875C64.8028 28.1725 64.9901 28.3354 65.1943 28.5712ZM60.9628 29.456L60.52 29.9008C60.3402 29.7209 60.1773 29.631 60.0313 29.631C59.951 29.631 59.8881 29.648 59.8439 29.682C59.798 29.716 59.7758 29.7573 59.7758 29.8084C59.7758 29.8473 59.7904 29.8813 59.8201 29.9154C59.8492 29.947 59.9196 29.9907 60.0336 30.0491L60.2966 30.1803C60.5735 30.3164 60.7632 30.455 60.8656 30.596C60.968 30.7369 61.0186 30.9022 61.0186 31.0918C61.0186 31.3446 60.9267 31.5561 60.7393 31.7238C60.552 31.8939 60.3012 31.9766 59.99 31.9766C59.574 31.9766 59.2412 31.8137 58.9927 31.488L59.4355 31.0067C59.5204 31.104 59.6182 31.1842 59.7322 31.2449C59.8439 31.3057 59.9463 31.3349 60.0336 31.3349C60.1284 31.3349 60.2041 31.313 60.2622 31.2668C60.321 31.2207 60.3501 31.1696 60.3501 31.1113C60.3501 31.0019 60.2454 30.8949 60.0365 30.7904L59.7956 30.6689C59.3337 30.4379 59.1027 30.1463 59.1027 29.7987C59.1027 29.5726 59.19 29.3806 59.3628 29.2226C59.5356 29.0622 59.759 28.9844 60.0289 28.9844C60.214 28.9844 60.3891 29.0257 60.552 29.1084C60.7126 29.1862 60.8487 29.3028 60.9628 29.456ZM58.5965 29.456L58.1539 29.9008C57.974 29.7209 57.811 29.631 57.6651 29.631C57.5848 29.631 57.5216 29.648 57.4778 29.682C57.4316 29.716 57.4097 29.7573 57.4097 29.8084C57.4097 29.8473 57.4243 29.8813 57.4535 29.9154C57.4827 29.947 57.5532 29.9907 57.6675 30.0491L57.9301 30.1803C58.2073 30.3164 58.3969 30.455 58.4993 30.596C58.6012 30.7369 58.6524 30.9022 58.6524 31.0918C58.6524 31.3446 58.5598 31.5561 58.3731 31.7238C58.1857 31.8939 57.935 31.9766 57.6238 31.9766C57.2079 31.9766 56.8747 31.8137 56.6266 31.488L57.0692 31.0067C57.1543 31.104 57.2516 31.1842 57.366 31.2449C57.4778 31.3057 57.58 31.3349 57.6675 31.3349C57.7624 31.3349 57.8378 31.313 57.8961 31.2668C57.9545 31.2207 57.9837 31.1696 57.9837 31.1113C57.9837 31.0019 57.8791 30.8949 57.67 30.7904L57.4292 30.6689C56.9671 30.4379 56.7361 30.1463 56.7361 29.7987C56.7361 29.5726 56.8236 29.3806 56.9963 29.2226C57.169 29.0622 57.3927 28.9844 57.6626 28.9844C57.8475 28.9844 58.0226 29.0257 58.1857 29.1084C58.3463 29.1862 58.4848 29.3028 58.5965 29.456ZM55.5517 30.122C55.503 29.9664 55.4106 29.84 55.272 29.7403C55.131 29.6431 54.9704 29.5945 54.7856 29.5945C54.5861 29.5945 54.4111 29.648 54.2603 29.7598C54.1654 29.8279 54.0779 29.9494 53.9976 30.122H55.5517ZM56.2642 30.681H53.966C54.0001 30.8852 54.0876 31.0457 54.2311 31.1672C54.3746 31.2863 54.557 31.347 54.7807 31.347C55.0482 31.347 55.2769 31.2523 55.469 31.0651L56.0697 31.3495C55.9214 31.5634 55.739 31.7214 55.5322 31.8234C55.3231 31.9255 55.075 31.9766 54.7856 31.9766C54.3381 31.9766 53.9758 31.8356 53.6961 31.5536C53.4164 31.2717 53.2753 30.9192 53.2753 30.4963C53.2753 30.0612 53.4164 29.7014 53.6961 29.4146C53.9758 29.1278 54.3284 28.9844 54.7516 28.9844C55.2015 28.9844 55.5663 29.1278 55.8484 29.4146C56.1305 29.7014 56.2716 30.0782 56.2716 30.5498L56.2642 30.681ZM50.1794 29.0525H50.8944V29.3466C51.0574 29.2104 51.2057 29.1156 51.337 29.0622C51.4684 29.0087 51.6046 28.9819 51.7431 28.9819C52.0253 28.9819 52.2685 29.0816 52.4655 29.2785C52.6308 29.4462 52.7135 29.6942 52.7135 30.0223V31.9061H52.0034V30.6592C52.0034 30.3188 51.9888 30.0928 51.9572 29.981C51.9255 29.8692 51.8721 29.7841 51.7967 29.7257C51.7213 29.6674 51.6264 29.6382 51.5146 29.6382C51.3686 29.6382 51.2446 29.6869 51.14 29.7841C51.0354 29.8813 50.9649 30.015 50.9236 30.1851C50.9017 30.2751 50.892 30.4672 50.892 30.7636V31.9061H50.177V29.0525H50.1794ZM48.815 29.0525H49.53V31.9061H48.815V29.0525ZM49.1749 27.8809C49.3014 27.8809 49.4084 27.9271 49.4984 28.0169C49.5884 28.1069 49.6346 28.2163 49.6346 28.3451C49.6346 28.4715 49.5908 28.5809 49.5009 28.6708C49.4109 28.7607 49.3063 28.8046 49.1798 28.8046C49.0533 28.8046 48.9439 28.7584 48.854 28.6684C48.764 28.576 48.7178 28.4666 48.7178 28.3354C48.7178 28.209 48.7615 28.1045 48.8515 28.0146C48.9415 27.9246 49.0485 27.8809 49.1749 27.8809ZM48.2727 29.456L47.8301 29.9008C47.6501 29.7209 47.4871 29.631 47.3412 29.631C47.261 29.631 47.1978 29.648 47.154 29.682C47.1077 29.716 47.0859 29.7573 47.0859 29.8084C47.0859 29.8473 47.1005 29.8813 47.1297 29.9154C47.1588 29.947 47.2293 29.9907 47.3437 30.0491L47.6063 30.1803C47.8836 30.3164 48.0733 30.455 48.1754 30.596C48.2776 30.7369 48.3286 30.9022 48.3286 31.0918C48.3286 31.3446 48.2362 31.5561 48.049 31.7238C47.8617 31.8939 47.6112 31.9766 47.2999 31.9766C46.884 31.9766 46.5508 31.8137 46.3028 31.488L46.7454 31.0067C46.8305 31.104 46.9278 31.1842 47.0421 31.2449C47.154 31.3057 47.2561 31.3349 47.3437 31.3349C47.4385 31.3349 47.5139 31.313 47.5723 31.2668C47.6306 31.2207 47.6598 31.1696 47.6598 31.1113C47.6598 31.0019 47.5553 30.8949 47.3461 30.7904L47.1054 30.6689C46.6433 30.4379 46.4122 30.1463 46.4122 29.7987C46.4122 29.5726 46.4997 29.3806 46.6724 29.2226C46.8451 29.0622 47.0689 28.9844 47.3388 28.9844C47.5236 28.9844 47.6988 29.0257 47.8617 29.1084C48.0222 29.1862 48.1584 29.3028 48.2727 29.456ZM43.2968 29.0525H44.024V30.4258C44.024 30.6932 44.0434 30.8779 44.0799 30.9824C44.1164 31.087 44.1748 31.1672 44.2575 31.2255C44.3402 31.2839 44.4399 31.3106 44.559 31.3106C44.6782 31.3106 44.7804 31.2814 44.863 31.2255C44.9457 31.1696 45.009 31.0845 45.0479 30.9751C45.077 30.8925 45.0916 30.7175 45.0916 30.4477V29.0525H45.8066V30.2605C45.8066 30.7588 45.7678 31.0991 45.6875 31.2814C45.5926 31.5051 45.4492 31.6776 45.2619 31.7967C45.0746 31.9158 44.8363 31.9766 44.5469 31.9766C44.2332 31.9766 43.9802 31.9061 43.7857 31.7676C43.5911 31.6266 43.4549 31.4345 43.3771 31.1842C43.3212 31.0116 43.292 30.698 43.292 30.2411V29.0525H43.2968ZM40.9864 30.2192V31.2085H41.1737C41.4826 31.2085 41.6917 31.1696 41.7987 31.0918C41.9057 31.014 41.9592 30.9022 41.9592 30.7564C41.9592 30.5911 41.896 30.4598 41.7695 30.3626C41.6431 30.2678 41.4339 30.2192 41.1396 30.2192H40.9864ZM40.9864 28.7462V29.5629H41.1493C41.3317 29.5629 41.468 29.524 41.558 29.4487C41.6479 29.3733 41.6917 29.2712 41.6917 29.14C41.6917 29.0184 41.6503 28.9237 41.5652 28.8507C41.4801 28.7802 41.3537 28.7438 41.181 28.7438H40.9864V28.7462ZM40.2544 31.9061V28.0462H40.8648C41.2199 28.0462 41.4777 28.068 41.6406 28.1142C41.8717 28.175 42.0565 28.2892 42.1951 28.4545C42.3313 28.6198 42.4018 28.8167 42.4018 29.0427C42.4018 29.1886 42.3702 29.3223 42.3094 29.4438C42.2486 29.5629 42.1465 29.6772 42.0054 29.7817C42.2389 29.891 42.4116 30.0296 42.5186 30.1949C42.628 30.3602 42.6815 30.5546 42.6815 30.7807C42.6815 30.997 42.6256 31.1939 42.5137 31.3738C42.4018 31.5512 42.2559 31.6849 42.0784 31.7724C41.9009 31.8624 41.6552 31.9061 41.3439 31.9061H40.2544ZM92.7027 26.0554C92.5665 25.9241 92.3745 25.7054 92.129 25.3991C91.8689 25.613 91.7374 25.8002 91.7374 25.963C91.7374 26.0384 91.7741 26.1064 91.8445 26.1696C91.9172 26.2329 92.0051 26.2644 92.1145 26.2644C92.2698 26.262 92.467 26.1939 92.7027 26.0554ZM92.2605 24.4657C92.4548 24.298 92.552 24.1522 92.552 24.0257C92.552 23.9601 92.5305 23.9066 92.4862 23.8629C92.4426 23.8216 92.3844 23.7997 92.3111 23.7997C92.246 23.7997 92.1872 23.824 92.1412 23.8702C92.0947 23.9188 92.0708 23.9723 92.0708 24.0354C92.0755 24.1619 92.136 24.3053 92.2605 24.4657ZM93.6563 25.314L94.0967 25.8148L93.8972 25.9946L93.6999 26.1721L94.3201 26.8332H93.4276L93.1722 26.5707C92.7661 26.8089 92.3891 26.9305 92.0388 26.9305C91.7421 26.9305 91.5041 26.843 91.3191 26.6704C91.1364 26.4978 91.0445 26.2742 91.0445 26.0043C91.0445 25.8002 91.0951 25.6057 91.1998 25.4234C91.3022 25.2411 91.482 25.0539 91.7328 24.8595C91.4844 24.5265 91.3604 24.2299 91.3604 23.9723C91.3604 23.7827 91.443 23.5931 91.6059 23.4084C91.7712 23.2236 92.0028 23.1288 92.3018 23.1288C92.6032 23.1288 92.8365 23.2212 92.9971 23.4059C93.16 23.5906 93.2403 23.7754 93.2403 23.9625C93.2403 24.1084 93.2036 24.2494 93.1286 24.3855C93.0529 24.5216 92.883 24.7209 92.6177 24.9835C92.9313 25.3529 93.1309 25.5814 93.2234 25.6713C93.2839 25.63 93.4276 25.5109 93.6563 25.314ZM87.4692 24.58C87.2429 24.58 87.0555 24.6553 86.9072 24.806C86.7588 24.9567 86.6861 25.1463 86.6861 25.3723C86.6861 25.6082 86.7617 25.8026 86.9124 25.9557C87.0631 26.1064 87.2528 26.1818 87.4814 26.1818C87.7049 26.1818 87.8876 26.1064 88.0336 25.9606C88.1767 25.8123 88.25 25.6203 88.25 25.3797C88.25 25.1439 88.1767 24.9519 88.0313 24.8036C87.8876 24.6553 87.7002 24.58 87.4692 24.58ZM88.218 23.9796H88.9284V26.4224C88.9284 26.9037 88.8313 27.2586 88.6363 27.4846C88.3763 27.7909 87.9824 27.9465 87.457 27.9465C87.1772 27.9465 86.9415 27.9124 86.7495 27.8419C86.5575 27.7715 86.3969 27.6694 86.2654 27.5333C86.1339 27.3971 86.0368 27.2343 85.9734 27.0398H86.7664C86.8368 27.1201 86.927 27.1808 87.0387 27.2197C87.1481 27.261 87.2795 27.2805 87.4302 27.2805C87.6251 27.2805 87.7782 27.2513 87.8974 27.193C88.0167 27.1346 88.0964 27.0568 88.1453 26.9645C88.1942 26.8697 88.218 26.7093 88.218 26.4808C88.0918 26.6071 87.958 26.6995 87.8195 26.753C87.681 26.8089 87.5228 26.8357 87.3476 26.8357C86.9636 26.8357 86.6372 26.6971 86.3725 26.4224C86.1072 26.1454 85.9734 25.7977 85.9734 25.3748C85.9734 24.9227 86.1148 24.5581 86.394 24.2834C86.6494 24.0355 86.9537 23.9115 87.3063 23.9115C87.4715 23.9115 87.6275 23.9431 87.7735 24.0015C87.919 24.0622 88.065 24.1619 88.2134 24.298V23.9796H88.218ZM82.8729 23.9796H83.5879V24.2737C83.7508 24.1376 83.8992 24.0428 84.0307 23.9893C84.1616 23.9358 84.2977 23.9091 84.4368 23.9091C84.7184 23.9091 84.9616 24.0087 85.1588 24.2056C85.3241 24.3734 85.4067 24.6213 85.4067 24.9494V26.8332H84.6969V25.5863C84.6969 25.246 84.6823 25.0199 84.6503 24.9081C84.6189 24.7963 84.5654 24.7112 84.4903 24.6529C84.4147 24.5945 84.3198 24.5654 84.2081 24.5654C84.0621 24.5654 83.9382 24.614 83.8334 24.7112C83.7287 24.8084 83.6583 24.9422 83.617 25.1123C83.5949 25.2022 83.5856 25.3942 83.5856 25.6908V26.8332H82.8705V23.9796H82.8729ZM81.5085 23.9796H82.2236V26.8332H81.5085V23.9796ZM81.8681 22.808C81.9949 22.808 82.102 22.8541 82.1916 22.9441C82.2817 23.034 82.3283 23.1434 82.3283 23.2722C82.3283 23.3986 82.2841 23.508 82.1945 23.5979C82.1043 23.6879 81.9996 23.7316 81.8733 23.7316C81.7465 23.7316 81.6371 23.6854 81.5475 23.5955C81.4573 23.5031 81.4113 23.3938 81.4113 23.2625C81.4113 23.1361 81.455 23.0316 81.5452 22.9416C81.6348 22.8517 81.7418 22.808 81.8681 22.808ZM80.0592 22.9246H80.7737V23.9771H81.1996V24.5945H80.7737V26.8308H80.0592V24.5945H79.6944V23.9771H80.0592V22.9246ZM76.744 23.9796H77.459V24.2737C77.622 24.1376 77.7703 24.0428 77.9018 23.9893C78.0333 23.9358 78.1694 23.9091 78.3079 23.9091C78.5901 23.9091 78.8333 24.0087 79.0299 24.2056C79.1958 24.3734 79.2784 24.6213 79.2784 24.9494V26.8332H78.568V25.5863C78.568 25.246 78.5534 25.0199 78.522 24.9081C78.49 24.7963 78.4365 24.7112 78.3614 24.6529C78.2858 24.5945 78.191 24.5654 78.0793 24.5654C77.9332 24.5654 77.8093 24.614 77.7046 24.7112C77.6004 24.8084 77.5294 24.9422 77.4881 25.1123C77.4666 25.2022 77.4567 25.3942 77.4567 25.6908V26.8332H76.7417V23.9796H76.744ZM73.5166 23.9796H74.2439V25.3529C74.2439 25.6203 74.2637 25.805 74.2998 25.9095C74.3364 26.0141 74.3946 26.0943 74.4772 26.1526C74.5604 26.211 74.6599 26.2377 74.7792 26.2377C74.8985 26.2377 75.0003 26.2085 75.0829 26.1526C75.1655 26.0967 75.2289 26.0117 75.2679 25.9023C75.297 25.8196 75.3116 25.6446 75.3116 25.3748V23.9796H76.0266V25.1876C76.0266 25.6859 75.9876 26.0262 75.9073 26.2085C75.8125 26.4321 75.6694 26.6048 75.482 26.7239C75.2947 26.843 75.0561 26.9037 74.767 26.9037C74.4534 26.9037 74.2003 26.8332 74.006 26.6946C73.811 26.5537 73.6749 26.3617 73.5969 26.1113C73.5411 25.9387 73.512 25.6251 73.512 25.1682V23.9796H73.5166ZM71.4302 24.58C71.2062 24.58 71.0218 24.6578 70.8734 24.8109C70.7251 24.9664 70.6518 25.1633 70.6518 25.4039C70.6518 25.6519 70.7251 25.8512 70.8711 26.0043C71.0166 26.1575 71.2016 26.2352 71.4279 26.2352C71.6513 26.2352 71.8387 26.1575 71.987 26.0019C72.1354 25.8464 72.211 25.647 72.211 25.4039C72.211 25.1585 72.1377 24.9616 71.9917 24.8084C71.8439 24.6578 71.6566 24.58 71.4302 24.58ZM71.418 23.9091C71.688 23.9091 71.9411 23.9771 72.179 24.1108C72.4176 24.2445 72.6026 24.4268 72.7364 24.6578C72.8697 24.8887 72.9354 25.1366 72.9354 25.4039C72.9354 25.6738 72.8673 25.9241 72.7364 26.1575C72.6026 26.3908 72.4176 26.5732 72.1866 26.7068C71.9556 26.8381 71.7002 26.9037 71.4204 26.9037C71.0096 26.9037 70.6593 26.7579 70.3696 26.4686C70.0804 26.1769 69.9344 25.8245 69.9344 25.4088C69.9344 24.964 70.0973 24.5921 70.426 24.2956C70.7152 24.0379 71.0433 23.9091 71.418 23.9091ZM69.4288 24.5581L68.833 24.8862C68.7207 24.7695 68.6113 24.6894 68.502 24.6432C68.3926 24.597 68.264 24.5751 68.118 24.5751C67.8503 24.5751 67.6339 24.6553 67.4686 24.8133C67.3028 24.9737 67.2202 25.1755 67.2202 25.4258C67.2202 25.6689 67.3005 25.8658 67.4588 26.0189C67.6193 26.1721 67.8259 26.2474 68.086 26.2474C68.4071 26.2474 68.6556 26.138 68.8353 25.9193L69.3997 26.3058C69.0931 26.7044 68.6602 26.9012 68.1034 26.9012C67.5996 26.9012 67.2057 26.753 66.9235 26.4564C66.639 26.1599 66.4982 25.8123 66.4982 25.4161C66.4982 25.139 66.5662 24.8862 66.7047 24.6553C66.8432 24.4244 67.0358 24.2397 67.2836 24.1084C67.5315 23.9771 67.809 23.9091 68.1156 23.9091C68.4001 23.9091 68.6526 23.965 68.879 24.0793C69.1001 24.191 69.2851 24.3515 69.4288 24.5581ZM65.985 24.5581L65.3892 24.8862C65.2775 24.7695 65.1676 24.6894 65.0582 24.6432C64.9488 24.597 64.8202 24.5751 64.6742 24.5751C64.4065 24.5751 64.1901 24.6553 64.0249 24.8133C63.8596 24.9737 63.7764 25.1755 63.7764 25.4258C63.7764 25.6689 63.8567 25.8658 64.015 26.0189C64.1756 26.1721 64.3821 26.2474 64.6428 26.2474C64.9633 26.2474 65.2118 26.138 65.3916 25.9193L65.9559 26.3058C65.6493 26.7044 65.2164 26.9012 64.6596 26.9012C64.1564 26.9012 63.7619 26.753 63.4803 26.4564C63.1952 26.1599 63.0544 25.8123 63.0544 25.4161C63.0544 25.139 63.1225 24.8862 63.2609 24.6553C63.4 24.4244 63.592 24.2397 63.8398 24.1084C64.0883 23.9771 64.3652 23.9091 64.6718 23.9091C64.9564 23.9091 65.2089 23.965 65.4352 24.0793C65.6592 24.191 65.8413 24.3515 65.985 24.5581ZM60.8435 23.999L60.321 25.3286H61.3642L60.8435 23.999ZM60.474 22.9733H61.2135L62.6995 26.8332H61.9356L61.6342 26.0384H60.051L59.7421 26.8332H58.9782L60.474 22.9733ZM57.062 24.5581L56.4661 24.8862C56.3542 24.7695 56.2448 24.6894 56.1354 24.6432C56.0259 24.597 55.897 24.5751 55.7511 24.5751C55.4836 24.5751 55.2671 24.6553 55.1018 24.8133C54.9364 24.9737 54.8537 25.1755 54.8537 25.4258C54.8537 25.6689 54.934 25.8658 55.092 26.0189C55.2526 26.1721 55.4593 26.2474 55.7195 26.2474C56.0405 26.2474 56.2885 26.138 56.4686 25.9193L57.0327 26.3058C56.7263 26.7044 56.2934 26.9012 55.7365 26.9012C55.2331 26.9012 54.8391 26.753 54.557 26.4564C54.2724 26.1599 54.1314 25.8123 54.1314 25.4161C54.1314 25.139 54.1995 24.8862 54.3381 24.6553C54.4767 24.4244 54.6689 24.2397 54.9169 24.1084C55.165 23.9771 55.4422 23.9091 55.7487 23.9091C56.0332 23.9091 56.2862 23.965 56.5123 24.0793C56.7385 24.1935 56.9185 24.3515 57.062 24.5581ZM52.9008 23.9796H53.6158V26.8332H52.9008V23.9796ZM53.2607 22.808C53.3872 22.808 53.4942 22.8541 53.5842 22.9441C53.6741 23.034 53.7204 23.1434 53.7204 23.2722C53.7204 23.3986 53.6766 23.508 53.5866 23.5979C53.4966 23.6879 53.3921 23.7316 53.2656 23.7316C53.1391 23.7316 53.0297 23.6854 52.9397 23.5955C52.8497 23.5031 52.8035 23.3938 52.8035 23.2625C52.8035 23.1361 52.8473 23.0316 52.9373 22.9416C53.0273 22.8517 53.1343 22.808 53.2607 22.808ZM51.1327 23.9796H51.3857C51.3881 23.6053 51.393 23.3865 51.4027 23.3184C51.4222 23.1604 51.4878 23.0365 51.5997 22.9465C51.7116 22.8542 51.8721 22.8104 52.0764 22.8104C52.2247 22.8104 52.3925 22.8444 52.5774 22.9125V23.4569C52.4752 23.4278 52.3901 23.4132 52.3244 23.4132C52.2417 23.4132 52.1809 23.4302 52.142 23.4643C52.1153 23.491 52.1007 23.5444 52.1007 23.6271L52.0982 23.982H52.553V24.5897H52.1007V26.8357H51.3857V24.5897H51.1327V23.9796ZM50.1089 23.9796H50.8239V26.8332H50.1089V23.9796ZM50.4664 22.808C50.5928 22.808 50.6998 22.8541 50.7898 22.9441C50.8798 23.034 50.926 23.1434 50.926 23.2722C50.926 23.3986 50.8822 23.508 50.7922 23.5979C50.7023 23.6879 50.5977 23.7316 50.4712 23.7316C50.3448 23.7316 50.2353 23.6854 50.1454 23.5955C50.0554 23.5031 50.0092 23.3938 50.0092 23.2625C50.0092 23.1361 50.0529 23.0316 50.1429 22.9416C50.2329 22.8517 50.3399 22.808 50.4664 22.808ZM49.5374 24.5581L48.9415 24.8862C48.8296 24.7695 48.7202 24.6894 48.6108 24.6432C48.5013 24.597 48.3724 24.5751 48.2265 24.5751C47.9589 24.5751 47.7425 24.6553 47.5772 24.8133C47.4117 24.9737 47.3291 25.1755 47.3291 25.4258C47.3291 25.6689 47.4094 25.8658 47.5674 26.0189C47.7279 26.1721 47.9346 26.2474 48.1949 26.2474C48.5159 26.2474 48.7639 26.138 48.9439 25.9193L49.5082 26.3058C49.2017 26.7044 48.7688 26.9012 48.2119 26.9012C47.7085 26.9012 47.3145 26.753 47.0324 26.4564C46.7478 26.1599 46.6068 25.8123 46.6068 25.4161C46.6068 25.139 46.6749 24.8862 46.8135 24.6553C46.9521 24.4244 47.1442 24.2397 47.3923 24.1084C47.6404 23.9771 47.9176 23.9091 48.2241 23.9091C48.5086 23.9091 48.7615 23.965 48.9877 24.0793C49.209 24.191 49.3938 24.3515 49.5374 24.5581ZM44.5493 24.5654C44.328 24.5654 44.1431 24.6432 43.9972 24.8012C43.8513 24.9567 43.7759 25.1585 43.7759 25.4016C43.7759 25.647 43.8513 25.8512 43.9997 26.0092C44.1505 26.1672 44.3329 26.2474 44.5518 26.2474C44.7779 26.2474 44.9652 26.1696 45.1111 26.0116C45.2594 25.8561 45.3348 25.6495 45.3348 25.3967C45.3348 25.1488 45.2594 24.947 45.1111 24.7938C44.9652 24.6407 44.7779 24.5654 44.5493 24.5654ZM45.3032 23.9796H46.0182V26.8332H45.3032V26.5294C45.1621 26.6631 45.0236 26.7579 44.8825 26.8162C44.7414 26.8745 44.5882 26.9037 44.4253 26.9037C44.0556 26.9037 43.737 26.7603 43.4671 26.4759C43.1971 26.1915 43.0634 25.8366 43.0634 25.4137C43.0634 24.9737 43.1947 24.614 43.4549 24.332C43.7151 24.0525 44.0313 23.9115 44.4058 23.9115C44.5785 23.9115 44.739 23.9431 44.8898 24.0063C45.0405 24.0695 45.1792 24.1668 45.3081 24.2931V23.9796H45.3032ZM40.9864 24.4827H41.2223C41.4071 24.4827 41.5361 24.4681 41.609 24.4438C41.682 24.4171 41.7379 24.3734 41.7793 24.3126C41.8206 24.2518 41.8401 24.1789 41.8401 24.0914C41.8401 23.9431 41.7817 23.8313 41.665 23.7632C41.5798 23.7122 41.4218 23.6855 41.1932 23.6855H40.984V24.4827H40.9864ZM40.2544 22.9733H41.0351C41.4582 22.9733 41.7622 23.0121 41.9471 23.0899C42.1343 23.1677 42.2802 23.2941 42.3897 23.4691C42.4967 23.6417 42.5502 23.8507 42.5502 24.0962C42.5502 24.366 42.4797 24.5897 42.3386 24.7671C42.1975 24.9445 42.0054 25.071 41.7622 25.139C41.6188 25.1803 41.361 25.1998 40.9864 25.1998V26.8332H40.2544V22.9733Z" fill="#6C6C6C"/>
</g>
<defs>
<clipPath id="clip0_1348_8340">
<rect width="94.8364" height="32" fill="white"/>
</clipPath>
</defs>
</svg>
